<?xml version="1.0" encoding="utf-8"?>
<!-- Generator: Adobe Illustrator 22.1.0, SVG Export Plug-In . SVG Version: 6.00 Build 0)  -->
<svg version="1.1" id="Capa_1" xmlns="http://www.w3.org/2000/svg" xmlns:xlink="http://www.w3.org/1999/xlink" x="0px" y="0px"
	 viewBox="0 0 512 512" style="enable-background:new 0 0 512 512;" xml:space="preserve">
<style type="text/css">
	.st0{fill:#FBA761;}
	.st1{fill:#FA892D;}
	.st2{fill:#F56C6C;}
	.st3{fill:#DB4D4D;}
	.st4{fill:#A27E77;}
	.st5{fill:#956B64;}
	.st6{fill:#FBDC40;}
	.st7{fill:#FAD000;}
	.st8{fill:#E4DAD8;}
	.st9{fill:#B9CC29;}
	.st10{fill:#A4BA29;}
</style>
<path class="st0" d="M400.3,504.5H111.7c-26.6,0-48.1-21.5-48.1-48.1v-32.1h384.8v32.1C448.4,483,426.8,504.5,400.3,504.5z"/>
<path class="st1" d="M95.7,456.4v-32.1H63.6v32.1c0,26.6,21.5,48.1,48.1,48.1h32.1C117.2,504.5,95.7,483,95.7,456.4z"/>
<path class="st0" d="M448.4,256H63.6v-24c0-35.4,28.7-64.1,64.1-64.1h256.5c35.4,0,64.1,28.7,64.1,64.1L448.4,256L448.4,256z"/>
<path class="st1" d="M159.8,167.8h-32.1c-35.4,0-64.1,28.7-64.1,64.1v24h32.1v-24C95.7,196.5,124.4,167.8,159.8,167.8z"/>
<path class="st2" d="M440.4,376.2H71.6c-13.3,0-24-10.8-24-24l0,0c0-13.3,10.8-24,24-24h368.7c13.3,0,24,10.8,24,24l0,0
	C464.4,365.5,453.6,376.2,440.4,376.2z"/>
<path class="st3" d="M79.7,352.2L79.7,352.2c0-13.3,10.8-24,24-24H71.6c-13.3,0-24,10.8-24,24l0,0c0,13.3,10.8,24,24,24h32.1
	C90.4,376.2,79.7,365.5,79.7,352.2z"/>
<path class="st4" d="M440.4,304.1H71.6c-13.3,0-24-10.8-24-24l0,0c0-13.3,10.8-24,24-24h368.7c13.3,0,24,10.8,24,24l0,0
	C464.4,293.3,453.6,304.1,440.4,304.1z"/>
<path class="st5" d="M79.7,280L79.7,280c0-13.3,10.8-24,24-24H71.6c-13.3,0-24,10.8-24,24l0,0c0,13.3,10.8,24,24,24h32.1
	C90.4,304.1,79.7,293.3,79.7,280z"/>
<path class="st4" d="M440.4,424.3H71.6c-13.3,0-24-10.8-24-24l0,0c0-13.3,10.8-24,24-24h368.7c13.3,0,24,10.8,24,24l0,0
	C464.4,413.6,453.6,424.3,440.4,424.3z"/>
<path class="st5" d="M79.7,400.3L79.7,400.3c0-13.3,10.8-24,24-24H71.6c-13.3,0-24,10.8-24,24l0,0c0,13.3,10.8,24,24,24h32.1
	C90.4,424.3,79.7,413.6,79.7,400.3z"/>
<polygon class="st6" points="256,448.4 424.3,376.2 87.7,376.2 "/>
<polygon class="st7" points="143.8,376.2 87.7,376.2 256,448.4 284.1,436.4 "/>
<polygon class="st8" points="256,31.6 127.8,31.6 151.8,71.6 127.8,111.7 256,111.7 "/>
<path class="st9" d="M87.7,304.1v24c21.4,0,21.4,24,42.8,24c21.4,0,21.4-16,42.7-16s21.4,16,42.7,16c21.4,0,21.4-16,42.8-16
	s21.4,16,42.8,16c21.4,0,21.4-16,42.7-16c21.4,0,21.4,16,42.7,16s24-24,45.4-24v-24H87.7z"/>
<rect x="87.7" y="304.1" class="st10" width="344.7" height="24"/>
<path d="M448.4,434.8c-4.2,0-7.5,3.4-7.5,7.5v14c0,22.4-18.2,40.6-40.6,40.6H111.7c-22.4,0-40.6-18.2-40.6-40.6v-14
	c0-4.1-3.4-7.5-7.5-7.5s-7.5,3.4-7.5,7.5v14c0,30.7,24.9,55.6,55.6,55.6h288.6c30.7,0,55.6-24.9,55.6-55.6v-14
	C455.9,438.2,452.5,434.8,448.4,434.8z"/>
<path d="M63.6,244.5c4.2,0,7.5-3.4,7.5-7.5v-5c0-31.2,25.4-56.6,56.6-56.6h256.5c31.2,0,56.6,25.4,56.6,56.6v5
	c0,4.1,3.4,7.5,7.5,7.5s7.5-3.4,7.5-7.5v-5c0-39.5-32.1-71.6-71.6-71.6H263.5V7.5c0-4.1-3.4-7.5-7.5-7.5s-7.5,3.4-7.5,7.5V24H127.8
	c-5.7,0-9.4,6.5-6.4,11.4L143,71.6l-21.7,36.2c-3,4.9,0.7,11.4,6.4,11.4h120.7v41.1H127.8c-39.5,0-71.6,32.1-71.6,71.6v5
	C56.1,241.1,59.5,244.5,63.6,244.5z M141,104.2l17.2-28.7c1.4-2.4,1.4-5.4,0-7.7L141,39.1h107.5v65.1H141z"/>
<path d="M471.9,352.2c0-17.4-14.2-31.6-31.6-31.6h-0.5v-9h0.5c17.4,0,31.6-14.2,31.6-31.6s-14.2-31.6-31.6-31.6h-63.1
	c-4.2,0-7.5,3.4-7.5,7.5s3.4,7.5,7.5,7.5h63.1c9.1,0,16.5,7.4,16.5,16.5s-7.4,16.5-16.5,16.5H71.6c-9.1,0-16.5-7.4-16.5-16.5
	s7.4-16.5,16.5-16.5h268.5c4.2,0,7.5-3.4,7.5-7.5c0-4.1-3.4-7.5-7.5-7.5H71.6c-17.4,0-31.6,14.2-31.6,31.6s14.2,31.6,31.6,31.6h8.5
	v9h-8.5c-17.4,0-31.6,14.2-31.6,31.6c0,9.6,4.3,18.3,11.2,24c-6.8,5.8-11.2,14.4-11.2,24c0,17.4,14.2,31.6,31.6,31.6h125.7
	c0.3,0,0.6,0,0.8,0l54.8,23.5c1.9,0.8,4,0.8,5.9,0l54.7-23.5c0.1,0,0.3,0,0.4,0h126.2c17.4,0,31.6-14.2,31.6-31.6
	c0-9.6-4.3-18.3-11.2-24C467.6,370.4,471.9,361.8,471.9,352.2z M424.8,311.6v9.9c-9.3,2.2-15.4,8.3-20.5,13.4
	c-6.3,6.3-10.2,9.8-17.4,9.8c-8.2,0-11.8-2.7-16.9-6.5c-5.7-4.2-12.7-9.5-25.9-9.5c-13.2,0-20.2,5.3-25.9,9.5
	c-5,3.8-8.7,6.5-16.9,6.5c-8.2,0-11.8-2.7-16.9-6.5c-5.7-4.2-12.7-9.5-25.9-9.5s-20.2,5.3-25.9,9.5c-5,3.8-8.7,6.5-16.9,6.5
	c-8.2,0-11.8-2.7-16.9-6.5c-5.7-4.2-12.7-9.5-25.9-9.5s-20.2,5.3-25.9,9.5c-5,3.8-8.7,6.5-16.9,6.5c-7,0-10.4-3.4-15.8-9.5
	c-4.6-5.2-10.2-11.4-19.5-13.7v-9.9L424.8,311.6L424.8,311.6z M71.6,416.8c-9.1,0-16.5-7.4-16.5-16.5s7.4-16.5,16.5-16.5h14.5
	l77.2,33.1L71.6,416.8L71.6,416.8z M256,440.2l-131.7-56.5h263.4L256,440.2z M456.9,400.3c0,9.1-7.4,16.5-16.5,16.5h-91.6l77.2-33.1
	h14.5C449.5,383.8,456.9,391.2,456.9,400.3z M71.6,368.7c-9.1,0-16.5-7.4-16.5-16.5s7.4-16.5,16.5-16.5h16c7,0,10.4,3.4,15.8,9.5
	c5.8,6.5,12.9,14.5,27,14.5c13.2,0,20.2-5.3,25.9-9.5c5-3.8,8.7-6.5,16.9-6.5s11.8,2.7,16.9,6.5c5.7,4.2,12.7,9.5,25.9,9.5
	c13.2,0,20.2-5.3,25.9-9.5c5-3.8,8.7-6.5,16.9-6.5c8.2,0,11.8,2.7,16.9,6.5c5.7,4.2,12.7,9.5,25.9,9.5c13.2,0,20.2-5.3,25.9-9.5
	c5-3.8,8.7-6.5,16.9-6.5c8.2,0,11.8,2.7,16.9,6.5c5.7,4.2,12.7,9.5,25.9,9.5c13.8,0,21.7-7.9,28-14.2c6.3-6.3,10.2-9.8,17.4-9.8
	c0.2,0,0.3,0,0.5,0c0.2,0,0.3,0,0.5,0h7c9.1,0,16.5,7.4,16.5,16.5s-7.4,16.5-16.5,16.5H71.6z"/>
<ellipse transform="matrix(0.1602 -0.9871 0.9871 0.1602 18.179 420.1448)" cx="256" cy="199.4" rx="7.5" ry="7.5"/>
<circle cx="304.6" cy="223.4" r="7.5"/>
<circle cx="399.8" cy="223.4" r="7.5"/>
<circle cx="112.2" cy="223.4" r="7.5"/>
<circle cx="208.4" cy="223.4" r="7.5"/>
<circle cx="352.7" cy="199.4" r="7.5"/>
<circle cx="159.3" cy="199.4" r="7.5"/>
</svg>
