<?xml version="1.0" encoding="utf-8"?>
<!-- Generator: Adobe Illustrator 22.1.0, SVG Export Plug-In . SVG Version: 6.00 Build 0)  -->
<svg version="1.1" id="Capa_1" xmlns="http://www.w3.org/2000/svg" xmlns:xlink="http://www.w3.org/1999/xlink" x="0px" y="0px"
	 viewBox="0 0 512 512" style="enable-background:new 0 0 512 512;" xml:space="preserve">
<style type="text/css">
	.st0{fill:#885951;}
	.st1{fill:#E4DAD8;}
	.st2{fill:#D7C8C5;}
	.st3{fill:#F56C6C;}
	.st4{fill:#DB4D4D;}
	.st5{fill:#7A463D;}
	.st6{fill:#A27E77;}
	.st7{fill:#FBDC40;}
	.st8{fill:#FAD000;}
</style>
<circle class="st0" cx="424.3" cy="408.3" r="64.1"/>
<circle class="st1" cx="424.3" cy="408.3" r="32.1"/>
<circle class="st0" cx="95.7" cy="408.3" r="64.1"/>
<g>
	
		<ellipse transform="matrix(0.9985 -5.530039e-02 5.530039e-02 0.9985 -22.4326 5.9168)" class="st1" cx="95.7" cy="408.3" rx="32.1" ry="32.1"/>
	<path class="st1" d="M264,384.2h80.2l100.4-48.1c0,0,24-144.3-48.1-176.3h-24c40.1,64.1,21.6,151.8,0,192.4c-34.7,0-73.6,0-108.4,0
		V384.2z"/>
</g>
<path class="st2" d="M396.4,352.2c21.6-40.5,40.1-128.2,0-192.4h-24c40.1,64.1,21.6,151.8,0,192.4
	C380.6,352.2,388.6,352.2,396.4,352.2z"/>
<path class="st3" d="M256,407.5c6.3-6.3,88.2-136.3,0-176.3c-15.8-7.2-109.9-19.5-176.3,24C-3.9,310,8.9,394.8,7.5,407.5
	C90.4,407.5,173.2,407.5,256,407.5z"/>
<path class="st4" d="M103.2,255.2c33.4-21.9,73.8-29.7,107.8-31.1c-37.3-1.6-89.7,3.8-131.3,31.1C-3.9,310,8.9,394.8,7.5,407.5
	c7.8,0,15.7,0,23.5,0C32.3,394.8,19.6,310,103.2,255.2z"/>
<path class="st3" d="M424.3,368.2c30.5,0,51.5,18.9,64.3,40.1h15.8c0-44.3-35.9-80.2-80.2-80.2s-80.2,35.9-80.2,80.2h16
	C371.8,387.1,389.5,368.2,424.3,368.2z"/>
<path class="st4" d="M436.4,329c-3.9-0.6-7.9-0.9-12-0.9c-44.3,0-80.2,35.9-80.2,80.2h16c2.7-5,5.8-9.8,9.3-14.3
	C375.6,360.4,402.5,334.1,436.4,329z"/>
<path class="st0" d="M167.8,183.9H256V232H127.8v-8C127.8,201.8,145.7,183.9,167.8,183.9z"/>
<path class="st5" d="M191.9,183.9h-24c-22.1,0-40.1,17.9-40.1,40.1v8h24v-8C151.8,201.8,169.7,183.9,191.9,183.9z"/>
<rect x="368.2" y="127.8" class="st6" width="24" height="32.1"/>
<g>
	<polygon class="st3" points="392.3,127.8 432.3,119.7 432.3,167.8 392.3,159.8 	"/>
	<circle class="st3" cx="328.1" cy="63.6" r="24"/>
</g>
<rect x="23.6" y="151.8" class="st7" width="88.2" height="80.2"/>
<rect x="23.6" y="151.8" class="st8" width="88.2" height="32.1"/>
<rect x="7.5" y="127.8" class="st7" width="120.2" height="40.1"/>
<path d="M453.5,325.6c2-18.1,4.3-50.2-0.2-82.5c-0.6-4.1-4.4-7-8.5-6.4c-4.1,0.6-7,4.4-6.4,8.5c4.2,30.1,2.1,60.7,0.4,76.6
	c-4.7-0.8-9.5-1.2-14.5-1.2c-11.8,0-23.1,2.4-33.3,6.6c7.4-22.4,11.9-47.6,12.5-71.4c0.8-32.8-5.4-63.1-18.2-88.5h6.3l5.3,1.1
	c14.9,7.9,26.2,22.3,33.6,43c1.4,3.9,5.7,5.9,9.6,4.5c3.9-1.4,5.9-5.7,4.5-9.6c-4.5-12.5-10.3-23.1-17.4-31.8l3.6,0.7
	c4.6,0.9,9-2.7,9-7.4v-48.1c0-4.7-4.4-8.3-9-7.4l-31.1,6.2V79.7c0-3.1-1.9-5.8-4.7-7l-35.8-14.3c-2.5-14.9-15.5-26.3-31.1-26.3
	c-17.4,0-31.6,14.2-31.6,31.6s14.2,31.6,31.6,31.6c13.8,0,25.5-8.9,29.8-21.2l26.8,10.7v35.5h-72.6c-4.2,0-7.5,3.4-7.5,7.5
	c0,4.2,3.4,7.5,7.5,7.5h48.6v24.5c0,4.1,3.3,7.5,7.4,7.5c34.4,59,18.2,134.4,2.9,170.2c-0.2,0.5-0.4,1-0.5,1.5
	c-2.3,1.8-4.5,3.6-6.5,5.6c-0.2,0-0.4,0-0.6,0h-67.9c6.4-19.7,10.9-42.8,7.5-64.1c-3.9-24.4-17.2-42.5-39.4-54.1v-42.7
	c0-4.2-3.4-7.5-7.5-7.5h-88.2c-26.2,0-47.6,21.4-47.6,47.6v0.5c-0.2,0-0.3,0-0.5,0h-0.5v-49.1h8.5c4.2,0,7.5-3.4,7.5-7.5v-40.1
	c0-4.2-3.4-7.5-7.5-7.5H7.5c-4.2,0-7.5,3.4-7.5,7.5v40.1c0,4.2,3.4,7.5,7.5,7.5H16v49.1H7.5c-4.2,0-7.5,3.4-7.5,7.5s3.4,7.5,7.5,7.5
	H92c-5.8,2.9-11.3,6.1-16.5,9.5C-1.6,299.5-0.3,375.3,0.1,400.2c0,1.8,0.1,3.6,0,5.3c0,1.4-0.2,2.7,0.2,4c0.9,3.2,3.9,5.5,7.2,5.5
	h16.9c3.4,36.3,34.1,64.9,71.3,64.9s67.9-28.5,71.3-64.9h89c2,0,3.9-0.8,5.3-2.2c2.2-2.1,7.5-10.1,13.6-21.1h63.4
	c-1,5.4-1.6,10.9-1.6,16.5c0,4.2,3.4,7.5,7.5,7.5h8.9c3.8,36,34.3,64.1,71.2,64.1s67.5-28.1,71.2-64.1h8.9c4.2,0,7.5-3.4,7.5-7.5
	C512,370.2,487.5,337.7,453.5,325.6z M328.1,80.2c-9.1,0-16.5-7.4-16.5-16.5s7.4-16.5,16.5-16.5c9.1,0,16.5,7.4,16.5,16.5
	S337.3,80.2,328.1,80.2z M424.8,158.7l-23-4.6c-0.7-0.3-1.3-0.7-2-1v-19.2l25-5V158.7z M376.2,135.3h8.5v17h-9v-17H376.2z
	 M135.3,223.9c0-18,14.6-32.6,32.6-32.6h80.7v33.1H135.3V223.9z M15,135.3h105.2v25H15C15,160.3,15,135.3,15,135.3z M31.1,175.3
	h73.1v49.1H31.1V175.3z M95.7,464.9c-28.9,0-52.8-21.8-56.2-49.9h17.2c3.2,18.6,19.5,32.8,39,32.8s35.8-14.2,39-32.8h17.2
	C148.5,443.1,124.6,464.9,95.7,464.9z M72.1,415h47.2c-2.9,10.3-12.4,17.8-23.6,17.8S75,425.3,72.1,415z M252.3,400H15.1
	c0,0,0,0,0,0c-0.4-25.3-1.5-92.4,68.7-138.5c12.8-8.4,27.6-15.2,44-20.1c1.3-0.4,2.3-1.1,3.2-1.9h124.9c17.9,9,28.3,22.6,31.9,41.5
	c4.9,25.8-4.5,56.1-13.2,77C266,378.3,256.3,394.2,252.3,400z M282.6,376.7c1.7-3.5,3.4-7.2,5-10.9c0.8-2,1.7-4,2.5-6.1h61.3
	c-3.5,5.3-6.5,11-8.9,17H282.6z M424.3,464.9c-30.6,0-55.6-24.4-56.6-54.7c7.5-13.1,16.1-22.2,26.6-27.8c-6,6.9-9.7,16-9.7,25.9
	c0,21.8,17.8,39.6,39.6,39.6s39.6-17.8,39.6-39.6c0-8.8-2.9-17-7.8-23.6c11,6.8,19.1,16.4,24.8,25.4
	C480,440.4,455,464.9,424.3,464.9z M424.3,383.7c13.5,0,24.5,11,24.5,24.5s-11,24.5-24.5,24.5s-24.5-11-24.5-24.5
	S410.8,383.7,424.3,383.7z M492.8,400.8c-17-25.9-41.2-40.1-68.5-40.1c-39,0-57.7,21.8-68.5,40.1h-3.8c3.8-36.5,34.7-65.1,72.3-65.1
	s68.5,28.6,72.3,65.1H492.8z"/>
<path d="M248,272.5h-72.1c-4.2,0-7.5,3.4-7.5,7.5s3.4,7.5,7.5,7.5H248c4.2,0,7.5-3.4,7.5-7.5C255.5,275.9,252.1,272.5,248,272.5z"/>
<path d="M232,320.6H127.8c-4.2,0-7.5,3.4-7.5,7.5s3.4,7.5,7.5,7.5H232c4.2,0,7.5-3.4,7.5-7.5C239.5,324,236.1,320.6,232,320.6z"/>
<path d="M207.9,368.7H79.7c-4.2,0-7.5,3.4-7.5,7.5c0,4.2,3.4,7.5,7.5,7.5h128.2c4.2,0,7.5-3.4,7.5-7.5
	C215.4,372.1,212.1,368.7,207.9,368.7z"/>
</svg>
