<?xml version="1.0" encoding="utf-8"?>
<!-- Generator: Adobe Illustrator 22.1.0, SVG Export Plug-In . SVG Version: 6.00 Build 0)  -->
<svg version="1.1" id="Capa_1" xmlns="http://www.w3.org/2000/svg" xmlns:xlink="http://www.w3.org/1999/xlink" x="0px" y="0px"
	 viewBox="0 0 512 512" style="enable-background:new 0 0 512 512;" xml:space="preserve">
<style type="text/css">
	.st0{fill:#BDBDBD;}
	.st1{opacity:0.1;enable-background:new    ;}
	.st2{fill:#DEDEDE;}
	.st3{fill:#FFBB59;}
	.st4{fill:#E6A03B;}
	.st5{fill:#FFB142;}
</style>
<path class="st0" d="M440.9,357.3H386c-8.2,0-14.9-6.7-14.9-14.9v-97.6c0-8.2,6.7-14.9,14.9-14.9h54.8c35.1,0,63.7,28.6,63.7,63.7
	S476,357.3,440.9,357.3z M400.9,327.6h40c18.7,0,33.9-15.2,33.9-33.9s-15.2-33.9-33.9-33.9h-40V327.6z"/>
<path class="st1" d="M386,230c-8.2,0-14.9,6.7-14.9,14.9v97.6c0,8.2,6.7,14.9,14.9,14.9h54.8c7.9,0,15.4-1.5,22.4-4.1
	c0.9-5.5,1.3-11,1.3-16.7v-18.6c-6.1,6-14.5,9.7-23.7,9.7h-40v-67.9h40c9.2,0,17.6,3.7,23.7,9.7v-34.8c-7.3-3-15.3-4.6-23.7-4.6
	L386,230L386,230z"/>
<path class="st2" d="M416.3,204.8H231c-10.1,0-18.3,8.2-18.3,18.3v113.4c0,42.7,34.6,77.4,77.4,77.4h67.2
	c42.7,0,77.4-34.6,77.4-77.4V223.1C434.6,213,426.4,204.8,416.3,204.8z"/>
<path class="st1" d="M242.7,336.5V223.1c0-10.1,8.2-18.3,18.3-18.3h-30c-10.1,0-18.3,8.2-18.3,18.3v113.4
	c0,42.7,34.6,77.4,77.4,77.4h30C277.3,413.8,242.7,379.2,242.7,336.5z"/>
<g>
	<path class="st3" d="M286.9,311.7c42.6,83.7,7.6,126.8-24.2,122.8s-24-29.6-66.8-40.8L286.9,311.7z"/>
	<path class="st3" d="M27.2,311.7c-42.6,83.7-7.6,126.8,24.2,122.8s24-29.6,66.8-40.8L27.2,311.7z"/>
</g>
<g>
	<path class="st4" d="M206.2,263c136.8,5.5,81.9,130.2-31.3,132.6L206.2,263z"/>
	<path class="st4" d="M107.9,263c-136.8,5.5-81.9,130.2,31.3,132.6L107.9,263z"/>
</g>
<path class="st5" d="M157,403.5c-42.1,0-111.2-159.9,0-159.9S199.1,403.5,157,403.5z"/>
<path d="M381.1,166.7c-2.1,3.6-0.8,8.2,2.8,10.2c3.5,2,8.2,0.8,10.2-2.8c7.7-13.5,7.7-30.3,0-43.8c-5.1-8.9-5.1-19.9,0-28.8
	c2.1-3.6,0.8-8.2-2.8-10.2c-3.6-2.1-8.2-0.8-10.2,2.8c-7.7,13.5-7.7,30.3,0,43.8C386.2,146.8,386.2,157.8,381.1,166.7z"/>
<path d="M317,146.1c-2.1,3.6-0.8,8.2,2.8,10.2c3.5,2,8.2,0.8,10.2-2.8c7.7-13.5,7.7-30.3,0-43.8c-5.1-8.9-5.1-19.9,0-28.8
	c2.1-3.6,0.8-8.2-2.8-10.2c-3.6-2.1-8.2-0.8-10.2,2.8c-7.7,13.5-7.7,30.3,0,43.8C322.1,126.2,322.1,137.2,317,146.1z"/>
<path d="M252.9,166.7c-2.1,3.6-0.8,8.2,2.8,10.2c3.5,2,8.2,0.8,10.2-2.8c7.7-13.5,7.7-30.3,0-43.8c-5.1-8.9-5.1-19.9,0-28.8
	c2.1-3.6,0.8-8.2-2.8-10.2c-3.6-2.1-8.2-0.8-10.2,2.8c-7.7,13.5-7.7,30.3,0,43.8C258,146.8,258,157.8,252.9,166.7z"/>
<path d="M9.7,419.8c8.6,14,22.7,22.4,37.6,22.4c16,0,27.9-8,38.1-19.5c7-7.9,14.3-16.1,33.3-21.4c5.9,0.9,11.8,1.5,17.9,1.7
	c6.7,5,13.7,7.9,20.5,7.9c6.6,0,13.6-2.7,20.6-7.9c6.1-0.2,12.1-0.8,17.9-1.7c18.9,5.3,26.2,13.4,33.2,21.3
	c9.9,11.2,22.7,19.5,38.1,19.5c14.4,0,27.9-7.8,36.6-20.9h53.8c36.9,0,68.3-23.6,80-56.5h3.6c39.2,0,71.2-31.9,71.2-71.2
	c0-38.8-31.3-70.5-70-71.1c-0.3-13.9-11.7-25.2-25.8-25.2H230.9c-14.2,0-25.8,11.6-25.8,25.8v28.1c-11.6-10-27.7-15.1-48.2-15.1
	c-23.3,0-41.2,6.9-52.7,19.6c-27,1.5-48.1,7.6-62.8,18.2c-12.8,9.3-20.2,21.5-21.6,35.7C-2.4,354-6.1,394.1,9.7,419.8z M203,372.8
	c6.9-11.6,12.3-24.2,16.1-37.1c7.3-24.9,7.4-47.1,0.5-64.1c30.8,3.5,51.2,14.6,57.6,31.1c0,0,0,0.1,0,0.1c2.7,7.1,2.7,15,0.7,22.3
	c-3.5,13.1-13.1,26.5-27.2,37.5c-12.5,9.7-27.5,16.9-43.9,21.1c-4.3,1.1-8.6,2-13,2.7C197,382.4,200,377.8,203,372.8z M266.8,427.3
	c-11.7,0-19.6-6.2-26.9-14.5c-4.9-5.5-10.4-11.8-19.7-17.3c18.6-6.2,35.3-15.9,48.3-28.3c9.8-9.3,17-19.7,21.4-30.3
	c8.3,22,14.5,49.4,3.6,71.7C288.3,418.9,278.7,427.3,266.8,427.3z M442.1,267.2c14,0.6,25.2,12.2,25.2,26.4s-11.2,25.8-25.2,26.4
	V267.2z M497,293.6c0,30.9-25.1,56.1-56,56.2c0.2,0,0.7-5.9,0.8-6.5c0.2-2.8,0.3-5.5,0.3-8.3c22.3-0.7,40.2-19,40.2-41.4
	s-17.9-40.8-40.2-41.4v-14.7C472.5,238.1,497,263.1,497,293.6z M220.2,223.1c0-5.9,4.8-10.8,10.8-10.8h185.4
	c5.9,0,10.8,4.8,10.8,10.8v104.5c0,9.3-0.1,18.3-2.5,27.3c-8.1,29.6-35.2,51.5-67.4,51.5h-46.8c0.4-1.1,0.7-2.3,1-3.5
	c0.4-1.7,0.8-3.4,1.1-5.1c3.5-18.4,2-46.1-16.8-84.7c-0.5-1.1-1.1-2.2-1.6-3.4c-1.1-10.6-5.5-20.1-13-28.1c-0.1-0.1-0.1-0.1-0.2-0.2
	c-11.7-12.4-28.4-18.9-44.7-22.3c-5.1-1.1-10.3-1.9-15.5-2.4c-0.2,0-0.4-0.1-0.6-0.1L220.2,223.1L220.2,223.1L220.2,223.1z
	 M94.4,271.6c0,0.1-0.1,0.2-0.1,0.3c-3.4,8.5-4.8,17.7-4.9,26.8c-0.1,4.1,3.3,7.5,7.4,7.6c4.2,0.1,7.5-3.3,7.6-7.4
	c0.2-12,3.5-21.8,9.9-31.9c8.6-10.6,22.9-15.9,42.8-15.9c15.6,0,33.2,3.6,43.4,16.7c20,25.9,6,68-8,93.3
	C181.1,381.5,166.8,396,157,396c-3.8,0-8.3-2.2-13.1-6.1c0,0,0,0-0.1-0.1c-17.2-14.1-28.1-36.8-34.4-57.7
	c-1.3-4.5-2.6-10.6-8.4-10.9c-12.1-0.6-6.4,14.5-4.4,20.3c1.8,5.1,3.8,10.2,6,15.2c4.7,10.5,10.5,20.6,17.5,29.7
	c-20.5-3.2-40.5-11-57-23.8c-15.2-11.8-29.9-29.8-28.6-50.3C36.1,290.6,57.9,275.8,94.4,271.6z M24.1,337
	c5,12.4,14.1,24.4,26.5,34.8c0,0,0.1,0.1,0.1,0.1c12.6,10.6,27.4,18.4,42.9,23.6c0.1,0,0.2,0.1,0.2,0.1
	c-9.3,5.5-14.9,11.8-19.7,17.3c-7.1,8-15.8,14.5-26.9,14.5c-9.8,0-18.8-5.6-24.8-15.3C17.1,403.2,7.9,379.8,24.1,337z"/>
</svg>
