<?xml version="1.0" encoding="utf-8"?>
<!-- Generator: Adobe Illustrator 22.1.0, SVG Export Plug-In . SVG Version: 6.00 Build 0)  -->
<svg version="1.1" id="Layer_1" xmlns="http://www.w3.org/2000/svg" xmlns:xlink="http://www.w3.org/1999/xlink" x="0px" y="0px"
	 viewBox="0 0 512 512" style="enable-background:new 0 0 512 512;" xml:space="preserve">
<style type="text/css">
	.st0{fill:#C0C9CC;}
	.st1{opacity:0.15;}
	.st2{fill:#202020;}
	.st3{fill:#DCE0E2;}
	.st4{fill:#FFFFFF;}
	.st5{fill:#9A6560;}
	.st6{fill:#FBAE2E;}
	.st7{fill:#FFF1CE;}
	.st8{fill:#8C5549;}
</style>
<polyline class="st0" points="111.1,503.4 51.9,503.4 40.2,464.6 471.8,464.6 460.1,503.4 141.6,503.4 "/>
<g class="st1">
	<polygon class="st2" points="39.5,464.6 51.2,503.4 78,503.4 66.2,464.6 	"/>
</g>
<path class="st3" d="M503.9,444.7c0,11-8.9,19.9-19.9,19.9H28c-11,0-19.9-8.9-19.9-19.9V438c0-11,8.9-19.9,19.9-19.9h456
	c11,0,19.9,8.9,19.9,19.9V444.7z"/>
<g class="st1">
	<path class="st2" d="M33.3,444.7V438c0-11,8.9-19.9,19.9-19.9H28c-11,0-19.9,8.9-19.9,19.9v6.6c0,11,8.9,19.9,19.9,19.9h25.3
		C42.3,464.6,33.3,455.7,33.3,444.7z"/>
</g>
<path class="st4" d="M68.4,383.5c0-10.9,8.8-19.7,19.7-19.7h144.1c10.9,0,19.7,8.8,19.7,19.7v14.8c0,10.9-8.8,19.7-19.7,19.7H88.1
	c-10.9,0-19.7-8.8-19.7-19.7V383.5z"/>
<g class="st1">
	<path class="st2" d="M93.6,398.4v-14.8c0-10.9,8.8-19.7,19.7-19.7H88.1c-10.9,0-19.7,8.8-19.7,19.7v14.8c0,10.9,8.8,19.7,19.7,19.7
		h25.2C102.4,418.1,93.6,409.3,93.6,398.4z"/>
</g>
<path class="st5" d="M8.1,190.1c0-8.5,6.9-15.4,15.4-15.4h206.7c8.5,0,15.4,6.9,15.4,15.4v5.1c0,8.5-6.9,15.4-15.4,15.4H23.5
	c-8.5,0-15.4-6.9-15.4-15.4L8.1,190.1z"/>
<g class="st1">
	<path class="st2" d="M33.3,195.2v-5.1c0-8.5,6.9-15.4,15.4-15.4H23.5c-8.5,0-15.4,6.9-15.4,15.4v5.1c0,8.5,6.9,15.4,15.4,15.4h25.2
		C40.2,210.6,33.3,203.7,33.3,195.2z"/>
</g>
<rect x="26.8" y="143.9" class="st6" width="199.9" height="30.8"/>
<g class="st1">
	<rect x="26.8" y="143.9" class="st2" width="25.3" height="30.8"/>
</g>
<rect x="139.3" y="118.8" class="st5" width="52.4" height="25"/>
<path class="st7" d="M189.9,281.7c-3.1,8.7,0.4,18.2,8,22.9c-8.8-1.2-17.6,3.9-20.7,12.6c-3.6,10,1.6,21.1,11.7,24.7
	c10,3.6,21.1-1.6,24.7-11.7l52.8,18.9l12.7-35.5l-52.8-18.9c3.6-10-1.6-21.1-11.7-24.7C204.5,266.4,193.5,271.7,189.9,281.7z"/>
<path class="st8" d="M329.1,418.1c-7.7-7.8-13.7-17.5-17-28.7l-48.4-32.8l9.1-25.3c0-0.1,0.1-0.2,0.1-0.3l9-25.3l60.1,5.5
	c5-3.1,10.4-5.5,16.3-7.3c36.4-10.9,74.7,9.8,85.5,46.2c7.4,24.9,0.1,50.8-17,68.1L329.1,418.1L329.1,418.1z"/>
<path class="st6" d="M188.9,341.8c-10-3.6-15.3-14.6-11.7-24.7c3.1-8.7,11.9-13.8,20.7-12.6c-7.6-4.7-11.1-14.2-8-22.9
	c3.6-10,14.6-15.3,24.7-11.7c0.7,0.3,1.4,0.6,2.1,0.9l4.6-60.3H32.3l15.8,207.5h39.9c-10.9,0-19.7-8.8-19.7-19.7v-14.8
	c0-10.9,8.8-19.7,19.7-19.7h121.5l2.3-30.1C207.2,341.4,197.6,345,188.9,341.8z"/>
<g class="st1">
	<path class="st2" d="M67,398.4v-14.8c0-3.7,1.1-7.2,2.9-10.2L57.5,210.6H31l15.8,207.5h26.5l-0.4-5.7C69.3,408.8,67,403.9,67,398.4
		z"/>
</g>
<path class="st2" d="M484,410.1h-40.8c11.4-18.4,14.6-41.1,8.2-62.3c-4.8-16.2-14.5-30-28.1-39.9c-13.1-9.6-29.3-14.9-45.4-14.9
	c-7.4,0-14.8,1.1-22,3.2c-5.5,1.6-10.8,3.9-15.8,6.7l-57.5-5.2c-3.7-0.3-7.1,1.9-8.3,5.3l-0.1,0.3l-38.8-13.9
	c0.2-4.4-0.7-8.8-2.6-12.9c-1.8-3.9-4.5-7.1-7.7-9.7l3.7-48.1h1.4c12.9,0,23.5-10.5,23.5-23.5v-5.1c0-11.3-8.1-20.8-18.8-23v-23.2
	c0-4.4-3.6-8.1-8.1-8.1h-27v-17c0-4.4-3.6-8.1-8.1-8.1h-12.1L204,18.5l46.9,12.4c4.3,1.1,8.7-1.4,9.8-5.7c1.1-4.3-1.4-8.7-5.7-9.8
	L200.3,0.9c-2.1-0.5-4.3-0.3-6.1,0.8c-1.8,1.1-3.2,2.8-3.7,4.9l-27.6,104.2h-23.6c-4.4,0-8.1,3.6-8.1,8.1v17H26.8
	c-4.4,0-8.1,3.6-8.1,8.1v23.2C8.1,169.3,0,178.8,0,190.1v5.1c0,12.9,10.5,23.5,23.5,23.5h1.4l14.6,191.4H28c-15.4,0-28,12.6-28,28
	v6.6c0,15.4,12.6,28,28,28h6.2l10,33c1,3.4,4.2,5.7,7.7,5.7h59.3c4.4,0,8.1-3.6,8.1-8.1s-3.6-8.1-8.1-8.1H57.9L51,472.7h410
	l-6.8,22.6H141.6c-4.4,0-8.1,3.6-8.1,8.1c0,4.4,3.6,8.1,8.1,8.1h318.5c3.5,0,6.7-2.3,7.7-5.7l10-33h6.2c15.4,0,28-12.6,28-28V438
	C512,422.6,499.4,410.1,484,410.1z M273.9,351.8C273.9,351.8,273.9,351.8,273.9,351.8l12.7-35.6c0,0,0,0,0,0l0.7-2l53.9,4.9
	c1.7,0.2,3.5-0.2,4.9-1.2c4.5-2.8,9.3-4.9,14.4-6.4c5.7-1.7,11.5-2.6,17.4-2.6c26.6,0,50.5,17.8,58.1,43.3c6,20.2,1.1,42-12.8,57.7
	h-90.7c-5.9-6.6-10.3-14.5-12.8-23c-0.5-1.8-1.7-3.3-3.2-4.4l-43.2-29.3L273.9,351.8z M232.2,355.8h-13.9l1.1-15l36.7,13.1l0,0
	c-1.2,3.5,0,7.3,3.1,9.4l46.1,31.2c1.9,5.4,4.3,10.7,7.3,15.5h-55.2c1.7-3.6,2.6-7.5,2.6-11.7v-14.8
	C260,368.2,247.5,355.8,232.2,355.8z M60.3,399.9c0,0.2,0,0.3,0,0.5c0,0.3,0,0.7,0.1,1c0,0.2,0,0.4,0.1,0.6c0,0.3,0.1,0.6,0.1,0.9
	c0,0.2,0.1,0.4,0.1,0.6c0.1,0.3,0.1,0.6,0.2,0.8c0,0.2,0.1,0.4,0.1,0.6c0.1,0.3,0.1,0.5,0.2,0.8c0.1,0.2,0.1,0.4,0.2,0.6
	c0.1,0.3,0.2,0.5,0.2,0.8c0.1,0.2,0.1,0.4,0.2,0.6c0.1,0.3,0.2,0.5,0.3,0.8c0.1,0.2,0.1,0.4,0.2,0.5c0.1,0.3,0.2,0.5,0.3,0.8
	c0.1,0.1,0.1,0.2,0.2,0.4h-7.3L41,218.7h171.5l-3.2,42.2c-0.4,0-0.9,0-1.3,0c-11.5,0-21.9,7.3-25.7,18.2c-2.4,6.8-2,14,0.8,20.3
	c-6.1,3.1-11.1,8.5-13.5,15.2c-2.5,6.9-2.1,14.3,1,20.9c3.1,6.6,8.6,11.6,15.5,14c0.7,0.2,1.4,0.5,2.1,0.6c0.4,0.1,0.8,0.2,1.2,0.3
	c0.3,0.1,0.6,0.1,0.9,0.2c0.5,0.1,1,0.2,1.5,0.2c0.2,0,0.4,0.1,0.6,0.1c0.5,0.1,1,0.1,1.6,0.1c0.2,0,0.4,0,0.6,0c0.3,0,0.5,0,0.8,0
	c2.4,0,4.8-0.3,7.1-0.9c0,0,0.1,0,0.1,0l-0.4,5.7h-114c-15.3,0-27.8,12.5-27.8,27.8v14.8C60.3,398.9,60.3,399.4,60.3,399.9z
	 M76.4,383.5c0-6.4,5.2-11.7,11.7-11.7h121.5h22.6c6.4,0,11.7,5.2,11.7,11.7v14.8c0,6.4-5.2,11.7-11.7,11.7H88.1h0h0
	c-6.4,0-11.7-5.2-11.7-11.7L76.4,383.5L76.4,383.5z M268.8,318.4l-3.5,9.8c-0.1,0.1-0.1,0.3-0.2,0.4l-3.6,10.1l-45.3-16.2
	c-0.9-0.3-1.8-0.5-2.7-0.5c-3.3,0-6.4,2.1-7.6,5.3c-0.3,0.8-0.6,1.5-1.1,2.2c-0.2,0.3-0.4,0.6-0.7,0.9c-0.1,0.1-0.2,0.2-0.2,0.3
	c-0.2,0.3-0.5,0.5-0.7,0.8c-0.1,0.1-0.1,0.1-0.2,0.2c-0.3,0.3-0.6,0.5-0.9,0.7c-0.1,0.1-0.1,0.1-0.2,0.2c-0.3,0.2-0.7,0.5-1,0.7
	c-0.1,0-0.1,0.1-0.2,0.1c-0.8,0.4-1.6,0.8-2.5,1c0,0-0.1,0-0.1,0c-0.4,0.1-0.8,0.2-1.3,0.3c-0.1,0-0.1,0-0.2,0
	c-0.4,0.1-0.9,0.1-1.3,0.1c-1.3,0-2.6-0.2-3.8-0.7c-2.8-1-5.1-3.1-6.4-5.8c-1.3-2.7-1.4-5.8-0.4-8.6c1.6-4.5,5.8-7.5,10.6-7.5
	c0.5,0,1,0,1.5,0.1c0.2,0,0.4,0,0.6,0.1c0.1,0,0.2,0,0.3,0c0.1,0,0.2,0,0.3,0c0,0,0,0,0.1,0c0.2,0,0.3,0,0.5,0c0.5,0,1-0.1,1.5-0.3
	c0,0,0,0,0.1,0c0.2-0.1,0.4-0.1,0.6-0.2c0,0,0,0,0,0c3-1.2,5.1-4.1,5.1-7.5c0-2.4-1-4.5-2.7-6c0,0,0,0-0.1-0.1
	c-0.3-0.3-0.6-0.5-1-0.7c0,0-0.1,0-0.1-0.1c-0.2-0.1-0.4-0.2-0.5-0.4c-0.1-0.1-0.3-0.2-0.4-0.3c-0.1-0.1-0.3-0.2-0.4-0.3
	c-0.1-0.1-0.2-0.2-0.4-0.3c-0.1-0.1-0.2-0.2-0.3-0.3c-0.1-0.1-0.2-0.2-0.3-0.3c-0.1-0.1-0.2-0.2-0.3-0.4c-0.1-0.1-0.2-0.2-0.3-0.3
	c-0.1-0.1-0.2-0.3-0.3-0.4c-0.1-0.1-0.2-0.2-0.2-0.4c-0.1-0.1-0.2-0.3-0.3-0.4c-0.1-0.1-0.1-0.2-0.2-0.4c-0.1-0.2-0.2-0.3-0.2-0.5
	c-0.1-0.1-0.1-0.2-0.2-0.4c-0.1-0.2-0.1-0.3-0.2-0.5c0-0.1-0.1-0.3-0.1-0.4c-0.1-0.2-0.1-0.3-0.2-0.5c0-0.1-0.1-0.3-0.1-0.4
	c0-0.2-0.1-0.4-0.1-0.5c0-0.1-0.1-0.2-0.1-0.4c0-0.2-0.1-0.4-0.1-0.6c0-0.1,0-0.2,0-0.4c0-0.2,0-0.4,0-0.6c0-0.1,0-0.2,0-0.4
	c0-0.2,0-0.4,0-0.6c0-0.1,0-0.2,0-0.3c0-0.2,0-0.4,0.1-0.6c0-0.1,0-0.2,0-0.3c0-0.2,0.1-0.5,0.1-0.7c0-0.1,0-0.2,0.1-0.2
	c0.1-0.3,0.2-0.6,0.3-0.9c1.6-4.5,5.8-7.5,10.6-7.5c0.3,0,0.6,0,1,0c1,0.1,1.9,0.3,2.8,0.6c0,0,0,0,0,0c0.2,0.1,0.5,0.2,0.7,0.3
	c0.2,0.1,0.3,0.2,0.5,0.3c0,0,0,0,0,0c2.2,1.1,4,2.9,5.1,5.2c1.3,2.7,1.4,5.8,0.4,8.6c-0.7,2-0.6,4.2,0.3,6.2
	c0.9,1.9,2.6,3.4,4.6,4.1L268.8,318.4z M147.4,126.9h36.3v8.9h-36.3V126.9z M34.9,151.9h104.4h52.4h27v14.7H34.9V151.9z M32.3,202.6
	h-8.9c-4.1,0-7.4-3.3-7.4-7.4v-5.1c0-4.1,3.3-7.4,7.4-7.4h3.4h199.9h3.4c4.1,0,7.3,3.3,7.3,7.4v5.1c0,4.1-3.3,7.4-7.3,7.4h-8.9H32.3
	z M495.9,444.7c0,6.6-5.3,11.9-11.9,11.9h-12.2H40.2H28c-6.5,0-11.9-5.3-11.9-11.9V438c0-6.5,5.3-11.9,11.9-11.9h20.2h39.9h0h144.1
	h96.9h97.7H484c6.6,0,11.9,5.3,11.9,11.9L495.9,444.7L495.9,444.7z"/>
<g class="st1">
	<path class="st2" d="M336.9,381.2c0-0.1,0-0.2,0-0.3c-0.7-5.8-4.6-8.4-4.7-8.4l-38.3-26l9.1-25.3c0-0.1,0.1-0.2,0.1-0.3l4.6-12.9
		l-25.8-2.4l-9,25.3c0,0.1-0.1,0.2-0.1,0.3l-9.1,25.3l48.4,32.8c3.4,11.2,9.3,20.9,17,28.7h40.3C352.4,413.4,339.5,399,336.9,381.2z
		"/>
</g>
</svg>
