<?xml version="1.0" encoding="utf-8"?>
<!-- Generator: Adobe Illustrator 22.1.0, SVG Export Plug-In . SVG Version: 6.00 Build 0)  -->
<svg version="1.1" id="Capa_1" xmlns="http://www.w3.org/2000/svg" xmlns:xlink="http://www.w3.org/1999/xlink" x="0px" y="0px"
	 viewBox="0 0 512 512" style="enable-background:new 0 0 512 512;" xml:space="preserve">
<style type="text/css">
	.st0{fill:#FBA761;}
	.st1{fill:#FCE780;}
	.st2{fill:#FEE2CA;}
	.st3{fill:#FDD0AB;}
	.st4{fill:#7FDECF;}
	.st5{fill:#24BFB2;}
	.st6{fill:#F2EDEC;}
</style>
<g>
	<polygon class="st0" points="256,378 271.5,425.6 321.6,425.6 281,455.1 296.5,502.7 256,473.3 215.5,502.7 231,455.1 190.4,425.6 
		240.5,425.6 	"/>
	<polygon class="st0" points="438.9,378 454.4,425.6 504.5,425.6 464,455.1 479.4,502.7 438.9,473.3 398.4,502.7 413.9,455.1 
		373.3,425.6 423.4,425.6 	"/>
	<polygon class="st0" points="73.1,378 57.6,425.6 7.5,425.6 48,455.1 32.6,502.7 73.1,473.3 113.6,502.7 98.1,455.1 138.7,425.6 
		88.6,425.6 	"/>
</g>
<path class="st1" d="M456.4,162.6L456.4,162.6c0-14.7-11.9-26.5-26.5-26.5H296.1c0,0,11.4-13.9,16-46.6c8-56.1-12.1-77.7-32.1-80.1
	c-5-0.6-9.3,3.3-9.3,8.3c0,0-5,52.4-14.7,71.8c-24,48.1-86.2,72.1-86.2,72.1v170.9c0,0,14.1,15.8,42.5,15.8c67.8,0,196.4,0,196.4,0
	c14.7,0,26.5-11.9,26.5-26.5s-11.9-26.5-26.5-26.5h10.6c14.7,0,26.5-11.9,26.5-26.5l0,0c0-14.7-11.9-26.5-26.5-26.5h10.6
	c14.7,0,26.5-11.9,26.5-26.5l0,0c0-14.7-11.9-26.5-26.5-26.5C444.5,189.1,456.4,177.2,456.4,162.6z"/>
<path class="st2" d="M456.4,162.6L456.4,162.6c0-14.7-11.9-26.5-26.5-26.5H296.1c0,0,11.4-13.9,16-46.6c8-56.1-12.1-77.7-32.1-80.1
	c-5-0.6-9.3,3.3-9.3,8.3c0,0-5,52.4-14.7,71.8c-24,48.1-86.2,72.1-86.2,72.1v170.9c0,0,14.1,15.8,42.5,15.8c67.8,0,196.4,0,196.4,0
	c14.7,0,26.5-11.9,26.5-26.5s-11.9-26.5-26.5-26.5h10.6c14.7,0,26.5-11.9,26.5-26.5l0,0c0-14.7-11.9-26.5-26.5-26.5h10.6
	c14.7,0,26.5-11.9,26.5-26.5l0,0c0-14.7-11.9-26.5-26.5-26.5C444.5,189.1,456.4,177.2,456.4,162.6z"/>
<g>
	<path class="st3" d="M408.6,332.3c0,0-128.6,0-196.4,0c-28.4,0-42.5-15.8-42.5-15.8v16c0,0,14.1,15.8,42.5,15.8
		c67.8,0,196.4,0,196.4,0c14.7,0,26.5-11.9,26.5-26.5c0-2.8-0.4-5.5-1.2-8C430.5,324.5,420.5,332.3,408.6,332.3z"/>
	<path class="st3" d="M429.9,167.9h-31.5v21.2h31.5c14.7,0,26.5-11.9,26.5-26.5l0,0c0-3.8-0.8-7.4-2.2-10.6
		C450.1,161.3,440.7,167.9,429.9,167.9z"/>
	<path class="st3" d="M429.9,220.9h-31.5v21.2h31.5c14.7,0,26.5-11.9,26.5-26.5l0,0c0-3.8-0.8-7.4-2.2-10.6
		C450.1,214.4,440.7,220.9,429.9,220.9z"/>
	<path class="st3" d="M419.2,274h-26.9v21.2h26.9c14.7,0,26.5-11.9,26.5-26.5l0,0c0-3.8-0.8-7.4-2.2-10.6
		C439.5,267.5,430.1,274,419.2,274z"/>
</g>
<path class="st4" d="M153.1,347H92c-11.2,0-20.4-9.1-20.4-20.4V173.9c0-11.2,9.1-20.4,20.4-20.4h61.1c11.2,0,20.4,9.1,20.4,20.4
	v152.7C173.5,337.9,164.3,347,153.1,347z"/>
<path class="st5" d="M103.7,322.5c-4.4,0-8-3.6-8-8v-161H92c-11.2,0-20.4,9.1-20.4,20.4v152.7c0,11.2,9.1,20.4,20.4,20.4h61.1
	c11.2,0,20.4-9.1,20.4-20.4v-4.1L103.7,322.5L103.7,322.5z"/>
<circle class="st6" cx="122.5" cy="301.2" r="15.3"/>
<path d="M122.6,278.4c-12.6,0-22.8,10.2-22.8,22.8c0,12.6,10.2,22.8,22.8,22.8s22.8-10.2,22.8-22.8
	C145.3,288.6,135.1,278.4,122.6,278.4z M122.6,308.9c-4.3,0-7.8-3.5-7.8-7.8s3.5-7.8,7.8-7.8s7.8,3.5,7.8,7.8
	C130.3,305.5,126.8,308.9,122.6,308.9z"/>
<path d="M321.6,418.1h-44.6l-13.8-42.5c-1-3.1-3.9-5.2-7.1-5.2s-6.2,2.1-7.1,5.2l-13.8,42.5h-44.6c-3.3,0-6.1,2.1-7.1,5.2
	c-1,3.1,0.1,6.5,2.7,8.4l36.1,26.2l-13.8,42.5c-1,3,0,6.3,2.5,8.2c2.6,2.1,6.4,2.1,9.1,0.2l36.1-26.2l36.1,26.2
	c2.8,2.1,6.8,1.9,9.4-0.5c2.2-2,3.1-5.1,2.2-7.9L289.9,458l36.1-26.2c2.6-1.9,3.7-5.3,2.7-8.4C327.7,420.2,324.8,418.1,321.6,418.1z
	 M276.6,449c-2.6,1.9-3.7,5.3-2.7,8.4l8.3,25.6l-21.8-15.9c-2.6-1.9-6.2-1.9-8.8,0l-21.8,15.9l8.3-25.6c1-3.1-0.1-6.5-2.7-8.4
	l-21.8-15.9h27c3.3,0,6.1-2.1,7.1-5.2l8.3-25.6l8.3,25.6c1,3.1,3.9,5.2,7.1,5.2h27L276.6,449z"/>
<path d="M511.6,423.3c-1-3.1-3.9-5.2-7.1-5.2h-44.6l-13.8-42.5c-1-3.1-3.9-5.2-7.1-5.2s-6.2,2.1-7.1,5.2L418,418.1h-44.6
	c-3.3,0-6.1,2.1-7.1,5.2c-1,3.1,0.1,6.5,2.7,8.4L405,458l-13.8,42.5c-1,3,0,6.3,2.5,8.2c2.6,2.1,6.4,2.1,9.1,0.2l36.1-26.2
	l36.1,26.2c2.8,2.1,6.8,1.9,9.4-0.5c2.2-2,3.1-5.1,2.2-7.9L472.8,458l36.1-26.2C511.5,429.8,512.6,426.4,511.6,423.3z M459.5,449
	c-2.6,1.9-3.7,5.3-2.7,8.4l8.3,25.6l-21.8-15.9c-2.6-1.9-6.2-1.9-8.8,0l-21.8,15.9l8.3-25.6c1-3.1-0.1-6.5-2.7-8.4l-21.8-15.9h27
	c3.3,0,6.1-2.1,7.1-5.2l8.3-25.6l8.3,25.6c1,3.1,3.9,5.2,7.1,5.2h27L459.5,449z"/>
<path d="M138.7,418.1H94l-13.8-42.5c-1-3.1-3.9-5.2-7.1-5.2c-3.3,0-6.1,2.1-7.1,5.2l-13.8,42.5H7.5c-3.3,0-6.1,2.1-7.1,5.2
	c-1,3.1,0.1,6.5,2.7,8.4L39.2,458l-13.8,42.5c-1,3.1,0.1,6.5,2.7,8.4c2.6,1.9,6.2,1.9,8.8,0l36.1-26.2l36.1,26.2
	c2.8,2.1,6.8,1.9,9.4-0.5c2.2-2,3.1-5.1,2.2-7.9L107,458l36.1-26.2c2.6-1.9,3.7-5.3,2.7-8.4C144.8,420.2,141.9,418.1,138.7,418.1z
	 M93.7,449c-2.6,1.9-3.7,5.3-2.7,8.4l8.3,25.6l-21.8-15.9c-2.6-1.9-6.2-1.9-8.8,0l-21.8,15.9l8.3-25.6c1-3.1-0.1-6.5-2.7-8.4
	l-21.8-15.9h27c3.3,0,6.1-2.1,7.1-5.2l8.3-25.6l8.3,25.6c1,3.1,3.9,5.2,7.1,5.2h27L93.7,449z"/>
<path d="M212.2,355.8h196.4c18.8,0,34.1-15.3,34.1-34.1c0-8.6-3.2-16.5-8.5-22.5c11.3-5.5,19.1-17.2,19.1-30.6
	c0-8.6-3.2-16.5-8.5-22.5c11.3-5.5,19.1-17.2,19.1-30.6c0-10.7-5-20.3-12.7-26.5c7.8-6.2,12.7-15.8,12.7-26.5
	c0-18.8-15.3-34.1-34.1-34.1H309c3.8-8.2,8.1-20.7,10.6-38c5.8-40.3-2.9-61.7-11.3-72.6c-7-9.2-16.5-14.7-27.3-16.1
	c-9.2-1.1-17.5,6.1-17.8,15.3c-1.4,14.5-6.6,54.1-13.9,68.9c-18.9,37.9-64.1,60.5-78,66.7c-4.9-4.2-11.2-6.7-18.1-6.7H92
	c-15.4,0-27.9,12.5-27.9,27.9v152.7c0,15.4,12.5,27.9,27.9,27.9h61.1c8.2,0,15.6-3.6,20.7-9.3C181.8,350.3,194.6,355.8,212.2,355.8z
	 M262.7,92.8c10.2-20.4,15.3-72.2,15.5-74.4c0-0.2,0-0.5,0-0.7c0-0.3,0.1-0.5,0.3-0.6c0.3-0.2,0.5-0.2,0.6-0.2
	c4.7,0.6,11.5,2.8,17.2,10.3c6.6,8.6,13.3,26.1,8.3,61.3c-4.3,29.8-14.3,42.8-14.4,42.9c-3.9,4.8-0.4,12.3,5.8,12.3h133.8
	c10.5,0,19,8.5,19,19s-8.5,19-19,19h-31.6c-4.1,0-7.5,3.4-7.5,7.5s3.4,7.5,7.5,7.5h31.6c10.5,0,19,8.5,19,19s-8.5,19-19,19h-31.6
	c-4.1,0-7.5,3.4-7.5,7.5s3.4,7.5,7.5,7.5h21c10.5,0,19,8.5,19,19s-8.5,19-19,19h-26.7c-4.1,0-7.5,3.4-7.5,7.5s3.4,7.5,7.5,7.5h16.1
	c10.5,0,19,8.5,19,19c0,10.5-8.5,19-19,19H212.2c-15.5,0-26-5.2-31.7-9.1c0.3-1.6,0.5-3.3,0.5-5.1V173.9c0-2.9-0.5-5.8-1.3-8.4
	C197.3,157.4,242.4,133.5,262.7,92.8z M153.1,339.5H92c-7.1,0-12.8-5.8-12.8-12.8V173.9c0-7.1,5.8-12.8,12.8-12.8h61.1
	c3.6,0,6.8,1.5,9.2,3.9v167.6c0,0.9,0.2,1.8,0.5,2.6C160.4,337.8,156.9,339.5,153.1,339.5z"/>
</svg>
