<?xml version="1.0" encoding="utf-8"?>
<!-- Generator: Adobe Illustrator 22.1.0, SVG Export Plug-In . SVG Version: 6.00 Build 0)  -->
<svg version="1.1" id="Capa_1" xmlns="http://www.w3.org/2000/svg" xmlns:xlink="http://www.w3.org/1999/xlink" x="0px" y="0px"
	 viewBox="0 0 28.7 40" style="enable-background:new 0 0 28.7 40;" xml:space="preserve">
<style type="text/css">
	.st0{fill:#F56C6C;}
	.st1{fill:#DB4D4D;}
	.st2{fill:#E4DAD8;}
	.st3{fill:#F2EDEC;}
	.st4{fill:#FAD000;}
</style>
<path class="st0" d="M0.6,14.4c0-7.6,6.2-13.8,13.8-13.8s13.8,6.2,13.8,13.8c0,10.7-13.8,25.1-13.8,25.1S0.6,25.1,0.6,14.4z"/>
<path class="st1" d="M3.1,14.4c0-7.3,5.6-13.2,12.7-13.7c-0.5-0.1-1-0.1-1.5-0.1C6.8,0.6,0.6,6.8,0.6,14.4
	c0,10.7,13.8,25.1,13.8,25.1s0.5-0.5,1.3-1.4C12.2,34.2,3.1,23.1,3.1,14.4z"/>
<circle class="st2" cx="14.4" cy="14.4" r="10.7"/>
<circle class="st3" cx="14.4" cy="14.4" r="8.8"/>
<g>
	<path class="st4" d="M10.3,8.1H10v12.2c0,0.5,0.4,0.9,0.9,0.9l0,0c0.5,0,0.9-0.4,0.9-0.9V15h1.3V11C13.2,9.4,11.9,8.1,10.3,8.1z"/>
	<path class="st4" d="M15.7,11.3v0.6c0,0.6,0.4,1.1,0.9,1.2v7.2c0,0.5,0.4,0.9,0.9,0.9s0.9-0.4,0.9-0.9v-7.2
		c0.5-0.1,0.9-0.6,0.9-1.2v-0.6L15.7,11.3L15.7,11.3z"/>
</g>
<path d="M14.4,0C6.4,0,0,6.4,0,14.4c0,2.5,0.7,5.4,2.2,8.7C3.4,25.6,5,28.3,7,31.2c3.4,4.9,6.9,8.6,6.9,8.6c0.2,0.2,0.6,0.2,0.8,0
	c0,0,3.5-3.7,6.9-8.6c2-2.9,3.6-5.7,4.8-8.2c1.5-3.2,2.2-6.1,2.2-8.7C28.7,6.4,22.3,0,14.4,0z M20.8,30.5c-2.7,3.8-5.4,6.9-6.4,8
	c-1-1.1-3.7-4.2-6.4-8c-4.4-6.3-6.8-11.9-6.8-16.2c0-7.3,5.9-13.2,13.2-13.2s13.2,5.9,13.2,13.2C27.6,18.6,25.2,24.2,20.8,30.5z"/>
<path d="M22.4,6.4c-0.2-0.2-0.6-0.2-0.8,0c-0.2,0.2-0.2,0.6,0,0.8c1.9,1.9,2.9,4.4,2.9,7.1c0,5.6-4.5,10.1-10.1,10.1
	S4.2,20,4.2,14.4S8.8,4.2,14.4,4.2c1.7,0,3.3,0.4,4.8,1.2c0.3,0.2,0.6,0,0.8-0.2s0-0.6-0.2-0.8c-1.6-0.9-3.5-1.3-5.4-1.3
	C8.1,3.1,3.1,8.1,3.1,14.4s5.1,11.3,11.3,11.3s11.3-5.1,11.3-11.3C25.7,11.4,24.5,8.5,22.4,6.4z"/>
<path d="M10,7.6c-0.3,0-0.6,0.3-0.6,0.6v12.2c0,0.8,0.7,1.5,1.5,1.5c0.8,0,1.5-0.7,1.5-1.5v-4.7h0.7c0.3,0,0.6-0.3,0.6-0.6V11
	c0-1.9-1.5-3.4-3.4-3.4C10.3,7.6,10,7.6,10,7.6z M10.6,8.7c1.1,0.1,2,1.1,2,2.2v3.5h-0.7c-0.3,0-0.6,0.3-0.6,0.6v5.3
	c0,0.2-0.2,0.4-0.4,0.4c-0.2,0-0.4-0.2-0.4-0.4L10.6,8.7L10.6,8.7z"/>
<path d="M17.5,21.9c0.8,0,1.5-0.7,1.5-1.5v-6.9c0.6-0.3,0.9-0.9,0.9-1.6V8.1c0-0.3-0.3-0.6-0.6-0.6s-0.6,0.3-0.6,0.6v2.5h-0.7V8.1
	c0-0.3-0.3-0.6-0.6-0.6s-0.6,0.3-0.6,0.6v2.5h-0.7V8.1c0-0.3-0.3-0.6-0.6-0.6c-0.3,0-0.6,0.3-0.6,0.6v3.8c0,0.7,0.4,1.3,0.9,1.6v6.9
	C16,21.2,16.7,21.9,17.5,21.9z M18.8,11.9L18.8,11.9c0,0.3-0.2,0.6-0.5,0.7c-0.3,0.1-0.4,0.3-0.4,0.6v7.2c0,0.2-0.2,0.4-0.4,0.4
	c-0.2,0-0.4-0.2-0.4-0.4v-7.2c0-0.3-0.2-0.5-0.4-0.6c-0.3-0.1-0.5-0.3-0.5-0.6v0L18.8,11.9L18.8,11.9L18.8,11.9z"/>
</svg>
