<?xml version="1.0" encoding="utf-8"?>
<!-- Generator: Adobe Illustrator 22.1.0, SVG Export Plug-In . SVG Version: 6.00 Build 0)  -->
<svg version="1.1" id="Capa_1" xmlns="http://www.w3.org/2000/svg" xmlns:xlink="http://www.w3.org/1999/xlink" x="0px" y="0px"
	 viewBox="0 0 512 512" style="enable-background:new 0 0 512 512;" xml:space="preserve">
<style type="text/css">
	.st0{fill:#F2EDEC;}
	.st1{fill:#E4DAD8;}
	.st2{fill:#956B64;}
	.st3{fill:#885951;}
	.st4{fill:#FBDC40;}
	.st5{fill:#B9CC29;}
</style>
<path class="st0" d="M392.3,280H23.5c-8.9,0-16-7.2-16-16V23.5c0-8.9,7.2-16,16-16h368.7c8.9,0,16,7.2,16,16V264
	C408.3,272.9,401.1,280,392.3,280z"/>
<path class="st1" d="M39.6,256c-4.4,0-8-3.6-8-8V7.5h-8c-8.9,0-16,7.2-16,16V264c0,8.9,7.2,16,16,16h368.7c8.9,0,16-7.2,16-16v-8
	H39.6z"/>
<rect x="7.5" y="63.6" class="st2" width="400.8" height="48.1"/>
<rect x="7.5" y="63.6" class="st3" width="24" height="48.1"/>
<path class="st4" d="M432.3,167.8c-36.6,0.8-64.9-9.3-80.2-16c-15.3,6.7-43.6,16.8-80.2,16c-32.3-0.7-57.4-9.5-72.1-16
	c0,66.8,0,133.6,0,200.4c5.3,19.3,17.8,54.5,48.1,88.2c38.9,43.2,84.5,58.7,104.2,64.1c19.7-5.4,65.3-21,104.2-64.1
	c30.3-33.6,42.8-68.9,48.1-88.2c0-66.8,0-133.6,0-200.4C489.8,158.3,464.6,167.1,432.3,167.8z"/>
<path class="st5" d="M352.2,471c-23.4-7.7-53.9-22.7-80.4-52.1c-18.2-20.2-32-44.8-39.9-71.2V195.5c12.9,2.6,26.1,4.1,39.4,4.4
	c1.6,0,3.1,0.1,4.7,0c25.8,0,51.8-4.7,76.2-13.6c24.3,8.9,50.4,13.6,76.2,13.6c1.5,0,3.1,0,4.7,0c13.3-0.3,26.5-1.8,39.4-4.4v152.2
	c-7.9,26.4-21.6,51-39.9,71.2C406.1,448.3,375.6,463.3,352.2,471z"/>
<polygon class="st0" points="401.3,264.4 326.9,346 299.4,324.9 278.5,349.2 329.4,390.4 424.7,286.3 "/>
<path d="M39.6,151.3h48.1c4.2,0,7.5-3.4,7.5-7.5s-3.4-7.5-7.5-7.5H39.6c-4.2,0-7.5,3.4-7.5,7.5C32.1,147.9,35.4,151.3,39.6,151.3z"
	/>
<path d="M159.8,168.3H39.6c-4.2,0-7.5,3.4-7.5,7.5s3.4,7.5,7.5,7.5h120.2c4.2,0,7.5-3.4,7.5-7.5C167.3,171.7,164,168.3,159.8,168.3z
	"/>
<path d="M508.6,145.5c-2.1-1.4-4.8-1.6-7.1-0.6c-22,9.7-45.3,14.9-69.3,15.4c-5.5,0.1-10.9,0-16.4-0.4V23.5
	c0-13-10.6-23.5-23.5-23.5H23.5C10.6,0,0,10.6,0,23.5V264c0,13,10.6,23.5,23.5,23.5h168.8v64.6c0,0.7,0.1,1.3,0.3,2
	c9.3,33.9,26.5,65.4,49.8,91.2c36.2,40.2,78.6,58.3,107.8,66.3c1.3,0.4,2.7,0.4,4,0c29.2-8.1,71.6-26.1,107.8-66.3
	c23.3-25.8,40.5-57.4,49.8-91.2c0.2-0.6,0.3-1.3,0.3-2V151.8C512,149.3,510.7,146.9,508.6,145.5z M15,71.1h385.8v33.1H15V71.1z
	 M23.5,15h368.7c4.7,0,8.5,3.8,8.5,8.5v32.6H15V23.5C15,18.9,18.9,15,23.5,15z M23.5,272.5c-4.7,0-8.5-3.8-8.5-8.5V119.2h385.8v39
	c-15.7-2.4-31.1-6.9-45.6-13.3c-1.9-0.9-4.1-0.9-6.1,0c-24.1,10.6-50.7,15.9-77,15.4c-24-0.5-47.3-5.7-69.3-15.4
	c-4.9-2.2-10.5,1.5-10.5,6.9v120.7H23.5z M497,351.2c-8.7,31.2-24.7,60.3-46.2,84.2c-33,36.6-71.5,53.5-98.6,61.3
	c-27.2-7.8-65.6-24.8-98.6-61.3c-21.5-23.8-37.4-52.9-46.2-84.2V163c20.7,7.7,42.3,11.9,64.5,12.4c27.3,0.6,55-4.7,80.3-15.4
	c25.3,10.6,53,15.9,80.3,15.4c22.1-0.5,43.8-4.6,64.5-12.4V351.2z"/>
<path d="M401.5,256.4c-2,0.1-3.9,0.9-5.2,2.4l-70,76.8l-23.5-17.9c-3.2-2.7-7.9-2.3-10.6,0.8l-20.9,24.3c-2.7,3.1-2.3,7.9,0.8,10.6
	l52.3,42.7c3,2.6,7.7,2.3,10.4-0.6l95.8-104.7c2.8-3,2.6-7.8-0.4-10.6l-23.5-21.8C405.4,257.1,403.5,256.4,401.5,256.4z M328.8,380
	l-41.2-33.1l11.1-12.9l23.2,17.7c3.1,2.6,7.7,2.4,10.4-0.6l69.8-76.6l12.5,11.6L328.8,380z"/>
</svg>
