<?xml version="1.0" encoding="utf-8"?>
<!-- Generator: Adobe Illustrator 22.1.0, SVG Export Plug-In . SVG Version: 6.00 Build 0)  -->
<svg version="1.1" id="Capa_1" xmlns="http://www.w3.org/2000/svg" xmlns:xlink="http://www.w3.org/1999/xlink" x="0px" y="0px"
	 viewBox="0 0 512 512" style="enable-background:new 0 0 512 512;" xml:space="preserve">
<style type="text/css">
	.st0{fill:#F2EDEC;}
	.st1{fill:#55D4BE;}
	.st2{fill:#24BFB2;}
	.st3{fill:#FAD000;}
	.st4{fill:#F2C416;}
	.st5{fill:#E4DAD8;}
	.st6{fill:#F56C6C;}
</style>
<path class="st0" d="M376.7,359.7L272.5,255.5c-4.7-4.7-12.3-4.7-17,0c-4.7,4.7-4.7,12.3,0,17l104.2,104.2c2.3,2.3,5.4,3.5,8.5,3.5
	s6.2-1.2,8.5-3.5C381.4,372,381.4,364.4,376.7,359.7z"/>
<rect x="403.3" y="342.4" transform="matrix(0.7071 -0.7071 0.7071 0.7071 -177.026 427.3718)" class="st1" width="48.1" height="170"/>
<rect x="407.7" y="353" transform="matrix(0.7071 -0.7071 0.7071 0.7071 -187.6669 422.9611)" class="st2" width="18" height="170"/>
<circle class="st3" cx="175.8" cy="175.9" r="168.3"/>
<circle class="st4" cx="175.8" cy="175.9" r="152.3"/>
<circle class="st5" cx="175.8" cy="175.9" r="136.3"/>
<circle class="st0" cx="175.8" cy="175.9" r="112.2"/>
<g>
	<path class="st6" d="M191.9,135.8v8c0,7.5,5.1,13.7,12,15.5V252c0,6.6,5.4,12,12,12s12-5.4,12-12v-92.7c6.9-1.8,12-8,12-15.5v-8
		H191.9L191.9,135.8z"/>
	<path class="st6" d="M123.7,95.7h-4V252c0,6.6,5.4,12,12,12l0,0c6.6,0,12-5.4,12-12v-68.1h16v-52.1
		C159.8,111.9,143.7,95.7,123.7,95.7z"/>
</g>
<path d="M509.8,465.2L389.6,344.9c-2.9-2.9-7.7-2.9-10.6,0l-3.2,3.2l-62.6-62.6c24.1-30.1,38.5-68.2,38.5-109.7
	C351.7,78.9,272.8,0,175.8,0S0,78.9,0,175.9s78.9,175.8,175.8,175.8c41.5,0,79.6-14.4,109.7-38.5l62.6,62.6l-3.2,3.2
	c-2.9,2.9-2.9,7.7,0,10.6l120.2,120.2c2.9,2.9,7.7,2.9,10.6,0l34-34C512.7,472.9,512.7,468.1,509.8,465.2z M15,175.9
	C15,87.2,87.2,15,175.8,15s160.8,72.1,160.8,160.8s-72.1,160.8-160.8,160.8S15,264.5,15,175.9z M296.9,303.3
	c2.2-2.1,4.3-4.2,6.4-6.4l61.9,61.9l-6.4,6.4L296.9,303.3z M470.5,493.9L360.9,384.3l23.4-23.4l109.6,109.6L470.5,493.9z"/>
<path d="M277.7,74.3c-2.9-2.9-7.7-2.9-10.6,0c-2.9,2.9-2.9,7.7,0,10.6c24.2,24.3,37.6,56.6,37.6,90.9c0,71-57.8,128.8-128.8,128.8
	S47.1,246.9,47.1,175.9S104.8,47.1,175.8,47.1c21.3,0,42.4,5.3,61,15.3c3.7,2,8.2,0.6,10.2-3.1c2-3.7,0.6-8.2-3.1-10.2
	c-20.8-11.2-44.3-17.1-68.1-17.1c-79.3,0-143.8,64.5-143.8,143.8s64.5,143.8,143.8,143.8s143.8-64.5,143.8-143.8
	C319.6,137.5,304.7,101.5,277.7,74.3z"/>
<path d="M119.7,88.2c-4.2,0-7.5,3.4-7.5,7.5V252c0,10.8,8.8,19.5,19.5,19.5s19.5-8.8,19.5-19.5v-60.6h8.5c4.1,0,7.5-3.4,7.5-7.5
	v-52.1c0-24-19.6-43.6-43.6-43.6L119.7,88.2L119.7,88.2z M127.2,103.4c14.1,1.7,25,13.8,25,28.3v44.6h-8.5c-4.1,0-7.5,3.4-7.5,7.5
	V252c0,2.5-2,4.5-4.5,4.5s-4.5-2-4.5-4.5L127.2,103.4L127.2,103.4z"/>
<path d="M215.9,271.5c10.8,0,19.5-8.8,19.5-19.5v-87.7c7.3-4.1,12-11.9,12-20.5V95.7c0-4.2-3.4-7.5-7.5-7.5s-7.5,3.4-7.5,7.5v32.6
	h-9V95.7c0-4.2-3.4-7.5-7.5-7.5s-7.5,3.4-7.5,7.5v32.6h-9V95.7c0-4.2-3.4-7.5-7.5-7.5s-7.5,3.4-7.5,7.5v48.1c0,8.7,4.7,16.4,12,20.5
	V252C196.4,262.8,205.1,271.5,215.9,271.5z M232.5,143.3v0.5c0,3.9-2.6,7.3-6.4,8.2c-3.3,0.9-5.6,3.8-5.6,7.3V252
	c0,2.5-2,4.5-4.5,4.5s-4.5-2-4.5-4.5v-92.7c0-3.4-2.3-6.4-5.6-7.3c-3.8-1-6.4-4.4-6.4-8.2v-0.5H232.5L232.5,143.3z"/>
</svg>
